<svg xmlns="http://www.w3.org/2000/svg" viewBox="0 0 200 200">
  <rect width="200" height="200" rx="20" fill="#0a0a0a"/>
  <g fill="#B48C50">
    <rect x="56" y="22" width="10" height="20" rx="1"/>
    <rect x="82" y="22" width="10" height="20" rx="1"/>
    <rect x="108" y="22" width="10" height="20" rx="1"/>
    <rect x="134" y="22" width="10" height="20" rx="1"/>
    <rect x="56" y="158" width="10" height="20" rx="1"/>
    <rect x="82" y="158" width="10" height="20" rx="1"/>
    <rect x="108" y="158" width="10" height="20" rx="1"/>
    <rect x="134" y="158" width="10" height="20" rx="1"/>
    <rect x="22" y="56" width="20" height="10" rx="1"/>
    <rect x="22" y="82" width="20" height="10" rx="1"/>
    <rect x="22" y="108" width="20" height="10" rx="1"/>
    <rect x="22" y="134" width="20" height="10" rx="1"/>
    <rect x="158" y="56" width="20" height="10" rx="1"/>
    <rect x="158" y="82" width="20" height="10" rx="1"/>
    <rect x="158" y="108" width="20" height="10" rx="1"/>
    <rect x="158" y="134" width="20" height="10" rx="1"/>
  </g>
  <rect x="42" y="42" width="116" height="116" rx="8" fill="#141414" stroke="#B48C50" stroke-width="2"/>
  <circle cx="54" cy="54" r="3.2" fill="#d4a766"/>
  <ellipse cx="82" cy="92" rx="5" ry="7" fill="#ffffff"/>
  <ellipse cx="118" cy="92" rx="5" ry="7" fill="#ffffff"/>
  <path d="M 84 118 Q 100 124 116 118" fill="none" stroke="#ffffff" stroke-width="2.5" stroke-linecap="round"/>
</svg>
